HIERARCHY
ROOT mixamorig:Hips
{
	OFFSET 0.000000 201.639420 0.000000
	CHANNELS 6 Xposition Yposition Zposition Xrotation Yrotation Zrotation
	JOINT mixamorig:Spine
	{
		OFFSET 0.006200 19.524994 -2.481800
		CHANNELS 3 Xrotation Yrotation Zrotation
		JOINT mixamorig:Spine1
		{
			OFFSET -0.000900 22.835007 -2.825400
			CHANNELS 3 Xrotation Yrotation Zrotation
			JOINT mixamorig:Spine2
			{
				OFFSET -0.020600 26.552490 -3.193300
				CHANNELS 3 Xrotation Yrotation Zrotation
				JOINT mixamorig:Neck
				{
					OFFSET -0.060000 30.701813 1.352200
					CHANNELS 3 Xrotation Yrotation Zrotation
					JOINT mixamorig:Head
					{
						OFFSET -0.087200 22.547607 3.670900
						CHANNELS 3 Xrotation Yrotation Zrotation
						JOINT mixamorig:HeadTop_End
						{
							OFFSET -0.830600 40.355194 7.893500
							CHANNELS 3 Xrotation Yrotation Zrotation
							End Site
							{
								OFFSET 0.000000 30.592346 0.000000
							}
						}
						JOINT mixamorig:RightEye
						{
							OFFSET -6.302100 18.118591 16.197100
							CHANNELS 3 Xrotation Yrotation Zrotation
							End Site
							{
								OFFSET 0.000000 30.592346 0.000000
							}
						}
						JOINT mixamorig:LeftEye
						{
							OFFSET 6.741500 18.382690 16.401899
							CHANNELS 3 Xrotation Yrotation Zrotation
							End Site
							{
								OFFSET 0.000000 30.592346 0.000000
							}
						}
					}
				}
				JOINT mixamorig:LeftShoulder
				{
					OFFSET 11.924900 18.230499 1.425400
					CHANNELS 3 Xrotation Yrotation Zrotation
					JOINT mixamorig:LeftArm
					{
						OFFSET 25.435989 -0.697632 -5.229300
						CHANNELS 3 Xrotation Yrotation Zrotation
						JOINT mixamorig:LeftForeArm
						{
							OFFSET 54.684776 0.000000 0.000000
							CHANNELS 3 Xrotation Yrotation Zrotation
							JOINT mixamorig:LeftHand
							{
								OFFSET 55.098175 0.000000 0.000000
								CHANNELS 3 Xrotation Yrotation Zrotation
								JOINT mixamorig:LeftHandMiddle1
								{
									OFFSET 23.369751 0.000000 0.000000
									CHANNELS 3 Xrotation Yrotation Zrotation
									JOINT mixamorig:LeftHandMiddle2
									{
										OFFSET 6.378677 0.000000 0.000000
										CHANNELS 3 Xrotation Yrotation Zrotation
										JOINT mixamorig:LeftHandMiddle3
										{
											OFFSET 6.148331 0.000000 0.000000
											CHANNELS 3 Xrotation Yrotation Zrotation
											JOINT mixamorig:LeftHandMiddle4
											{
												OFFSET 6.582504 0.000000 0.000000
												CHANNELS 3 Xrotation Yrotation Zrotation
												End Site
												{
													OFFSET -1.168900 6.395691 1.028606
												}
											}
										}
									}
								}
								JOINT mixamorig:LeftHandThumb1
								{
									OFFSET 7.235672 -3.848206 5.434273
									CHANNELS 3 Xrotation Yrotation Zrotation
									JOINT mixamorig:LeftHandThumb2
									{
										OFFSET 6.568451 -3.792297 3.792300
										CHANNELS 3 Xrotation Yrotation Zrotation
										JOINT mixamorig:LeftHandThumb3
										{
											OFFSET 6.063080 -3.500519 3.500518
											CHANNELS 3 Xrotation Yrotation Zrotation
											JOINT mixamorig:LeftHandThumb4
											{
												OFFSET 4.793182 -2.767334 2.767349
												CHANNELS 3 Xrotation Yrotation Zrotation
												End Site
												{
													OFFSET 0.101639 6.054260 1.275483
												}
											}
										}
									}
								}
								JOINT mixamorig:LeftHandIndex1
								{
									OFFSET 23.101074 -0.309540 4.992809
									CHANNELS 3 Xrotation Yrotation Zrotation
									JOINT mixamorig:LeftHandIndex2
									{
										OFFSET 6.226883 0.000000 0.000000
										CHANNELS 3 Xrotation Yrotation Zrotation
										JOINT mixamorig:LeftHandIndex3
										{
											OFFSET 6.094330 0.000000 0.000000
											CHANNELS 3 Xrotation Yrotation Zrotation
											JOINT mixamorig:LeftHandIndex4
											{
												OFFSET 5.482605 0.000000 0.000000
												CHANNELS 3 Xrotation Yrotation Zrotation
												End Site
												{
													OFFSET -1.427902 5.233032 0.797164
												}
											}
										}
									}
								}
								JOINT mixamorig:LeftHandRing1
								{
									OFFSET 22.299240 0.021149 -3.964172
									CHANNELS 3 Xrotation Yrotation Zrotation
									JOINT mixamorig:LeftHandRing2
									{
										OFFSET 6.321869 0.000000 0.000000
										CHANNELS 3 Xrotation Yrotation Zrotation
										JOINT mixamorig:LeftHandRing3
										{
											OFFSET 5.899796 0.000000 0.000000
											CHANNELS 3 Xrotation Yrotation Zrotation
											JOINT mixamorig:LeftHandRing4
											{
												OFFSET 6.517899 0.000000 0.000000
												CHANNELS 3 Xrotation Yrotation Zrotation
												End Site
												{
													OFFSET -1.637299 6.232208 0.980890
												}
											}
										}
									}
								}
								JOINT mixamorig:LeftHandPinky1
								{
									OFFSET 20.463791 -0.302338 -8.562233
									CHANNELS 3 Xrotation Yrotation Zrotation
									JOINT mixamorig:LeftHandPinky2
									{
										OFFSET 6.908646 0.000000 0.000000
										CHANNELS 3 Xrotation Yrotation Zrotation
										JOINT mixamorig:LeftHandPinky3
										{
											OFFSET 4.622849 0.000000 0.000000
											CHANNELS 3 Xrotation Yrotation Zrotation
											JOINT mixamorig:LeftHandPinky4
											{
												OFFSET 5.216080 0.000000 0.000000
												CHANNELS 3 Xrotation Yrotation Zrotation
												End Site
												{
													OFFSET -0.606308 5.116241 0.814926
												}
											}
										}
									}
								}
							}
						}
					}
				}
				JOINT mixamorig:RightShoulder
				{
					OFFSET -12.001300 18.284088 1.348900
					CHANNELS 3 Xrotation Yrotation Zrotation
					JOINT mixamorig:RightArm
					{
						OFFSET -25.308500 -0.751312 -5.164599
						CHANNELS 3 Xrotation Yrotation Zrotation
						JOINT mixamorig:RightForeArm
						{
							OFFSET -54.684429 0.000000 0.000000
							CHANNELS 3 Xrotation Yrotation Zrotation
							JOINT mixamorig:RightHand
							{
								OFFSET -55.150291 0.000000 0.000000
								CHANNELS 3 Xrotation Yrotation Zrotation
								JOINT mixamorig:RightHandMiddle1
								{
									OFFSET -23.317566 0.000000 0.000000
									CHANNELS 3 Xrotation Yrotation Zrotation
									JOINT mixamorig:RightHandMiddle2
									{
										OFFSET -6.378403 0.000000 0.000000
										CHANNELS 3 Xrotation Yrotation Zrotation
										JOINT mixamorig:RightHandMiddle3
										{
											OFFSET -6.148193 0.000000 0.000000
											CHANNELS 3 Xrotation Yrotation Zrotation
											JOINT mixamorig:RightHandMiddle4
											{
												OFFSET -6.583389 0.000000 0.000000
												CHANNELS 3 Xrotation Yrotation Zrotation
												End Site
												{
													OFFSET 1.171692 6.395905 1.029786
												}
											}
										}
									}
								}
								JOINT mixamorig:RightHandThumb1
								{
									OFFSET -7.190521 -3.860474 5.435846
									CHANNELS 3 Xrotation Yrotation Zrotation
									JOINT mixamorig:RightHandThumb2
									{
										OFFSET -6.567429 -3.791718 3.791708
										CHANNELS 3 Xrotation Yrotation Zrotation
										JOINT mixamorig:RightHandThumb3
										{
											OFFSET -6.062469 -3.500153 3.500166
											CHANNELS 3 Xrotation Yrotation Zrotation
											JOINT mixamorig:RightHandThumb4
											{
												OFFSET -4.792618 -2.767029 2.767022
												CHANNELS 3 Xrotation Yrotation Zrotation
												End Site
												{
													OFFSET -0.100327 6.053253 1.276754
												}
											}
										}
									}
								}
								JOINT mixamorig:RightHandIndex1
								{
									OFFSET -23.048981 -0.310791 4.992554
									CHANNELS 3 Xrotation Yrotation Zrotation
									JOINT mixamorig:RightHandIndex2
									{
										OFFSET -6.227539 0.000000 0.000000
										CHANNELS 3 Xrotation Yrotation Zrotation
										JOINT mixamorig:RightHandIndex3
										{
											OFFSET -6.095047 0.000000 0.000000
											CHANNELS 3 Xrotation Yrotation Zrotation
											JOINT mixamorig:RightHandIndex4
											{
												OFFSET -5.484772 0.000000 0.000000
												CHANNELS 3 Xrotation Yrotation Zrotation
												End Site
												{
													OFFSET 1.420593 5.237305 0.797056
												}
											}
										}
									}
								}
								JOINT mixamorig:RightHandRing1
								{
									OFFSET -22.246323 0.020569 -3.963762
									CHANNELS 3 Xrotation Yrotation Zrotation
									JOINT mixamorig:RightHandRing2
									{
										OFFSET -6.322128 0.000000 0.000000
										CHANNELS 3 Xrotation Yrotation Zrotation
										JOINT mixamorig:RightHandRing3
										{
											OFFSET -5.900024 0.000000 0.000000
											CHANNELS 3 Xrotation Yrotation Zrotation
											JOINT mixamorig:RightHandRing4
											{
												OFFSET -6.518356 0.000000 0.000000
												CHANNELS 3 Xrotation Yrotation Zrotation
												End Site
												{
													OFFSET 1.636398 6.232697 0.982186
												}
											}
										}
									}
								}
								JOINT mixamorig:RightHandPinky1
								{
									OFFSET -20.411011 -0.303314 -8.561701
									CHANNELS 3 Xrotation Yrotation Zrotation
									JOINT mixamorig:RightHandPinky2
									{
										OFFSET -6.907349 0.000000 0.000000
										CHANNELS 3 Xrotation Yrotation Zrotation
										JOINT mixamorig:RightHandPinky3
										{
											OFFSET -4.623840 0.000000 0.000000
											CHANNELS 3 Xrotation Yrotation Zrotation
											JOINT mixamorig:RightHandPinky4
											{
												OFFSET -5.218353 0.000000 0.000000
												CHANNELS 3 Xrotation Yrotation Zrotation
												End Site
												{
													OFFSET 0.602097 5.118835 0.816273
												}
											}
										}
									}
								}
							}
						}
					}
				}
			}
		}
	}
	JOINT mixamorig:LeftUpLeg
	{
		OFFSET 18.168400 -13.561905 -0.039000
		CHANNELS 3 Xrotation Yrotation Zrotation
		JOINT mixamorig:LeftLeg
		{
			OFFSET 0.577358 -80.825211 -3.695000
			CHANNELS 3 Xrotation Yrotation Zrotation
			JOINT mixamorig:LeftFoot
			{
				OFFSET -0.577356 -83.370262 -6.520700
				CHANNELS 3 Xrotation Yrotation Zrotation
				JOINT mixamorig:LeftToeBase
				{
					OFFSET 0.750401 -20.798306 25.135401
					CHANNELS 3 Xrotation Yrotation Zrotation
					JOINT mixamorig:LeftToe_End
					{
						OFFSET -0.000500 0.001200 19.917799
						CHANNELS 3 Xrotation Yrotation Zrotation
						End Site
						{
							OFFSET 0.000000 19.917805 0.000000
						}
					}
				}
			}
		}
	}
	JOINT mixamorig:RightUpLeg
	{
		OFFSET -18.162500 -13.585098 -0.041000
		CHANNELS 3 Xrotation Yrotation Zrotation
		JOINT mixamorig:RightLeg
		{
			OFFSET -0.595024 -80.945297 -3.631900
			CHANNELS 3 Xrotation Yrotation Zrotation
			JOINT mixamorig:RightFoot
			{
				OFFSET 0.595024 -83.218193 -6.561200
				CHANNELS 3 Xrotation Yrotation Zrotation
				JOINT mixamorig:RightToeBase
				{
					OFFSET -0.753601 -20.807106 25.115000
					CHANNELS 3 Xrotation Yrotation Zrotation
					JOINT mixamorig:RightToe_End
					{
						OFFSET 0.000299 0.001700 19.918200
						CHANNELS 3 Xrotation Yrotation Zrotation
						End Site
						{
							OFFSET 0.000000 19.918203 0.000000
						}
					}
				}
			}
		}
	}
}
MOTION
Frames: 4
Frame Time: 0.033333
0.373360 200.306702 -0.376033 -3.753476 -5.226424 -3.503291 3.298158 1.529786 2.471404 1.154535 0.318192 1.550956 1.130265 0.355408 1.547358 5.619234 -0.082874 0.466836 -7.552263 1.384123 -0.090493 -0.000000 -0.000000 0.000000 -0.000000 -0.000000 0.000000 -0.000000 -0.000000 0.000000 1.047658 -17.446323 -12.316919 3.915800 -19.989390 -69.767589 0.000008 -1.453249 -0.000007 -32.919879 -2.224698 2.055714 2.716103 7.344343 -66.581429 3.693552 5.440044 -68.328010 3.787599 5.476308 -69.316735 -0.000000 0.000000 0.000001 5.499365 0.493857 -8.469336 11.858764 25.410658 17.046726 -13.812108 3.534449 9.038050 0.000003 0.000000 -0.000002 2.745254 3.255395 -58.332117 3.688856 5.438173 -68.278457 2.829789 5.012991 -58.867242 -0.000000 -0.000000 -0.000002 3.514587 7.724631 -72.128608 4.031305 5.561821 -71.850202 3.735572 5.456465 -68.770593 -0.000000 0.000000 -0.000000 4.957096 8.602520 -78.311158 3.691658 5.439295 -68.308032 3.605901 5.404562 -67.400382 0.000000 0.000001 -0.000003 1.190830 15.341044 14.700135 13.162761 27.550896 58.780956 0.000004 6.689793 0.000003 -19.668703 0.538802 -6.094601 1.175149 -5.477416 54.245434 2.645839 -4.201318 64.388446 2.718717 -4.235379 65.379322 0.000000 -0.000000 -0.000002 -1.662809 -0.170817 -4.215346 15.246802 -3.533808 -12.261691 -21.533903 21.688957 -5.725046 -0.000002 0.000000 -0.000000 1.425769 -1.537980 46.028986 2.102058 -3.894946 56.697332 1.501237 -3.426536 47.308165 0.000002 0.000001 -0.000003 2.250741 -6.300619 67.439211 2.907233 -4.316562 67.907271 2.678209 -4.216622 64.829710 0.000000 0.000000 0.000000 3.608004 -7.262126 73.588369 2.644352 -4.200603 64.368160 2.578076 -4.168226 63.460080 0.000000 0.000000 -0.000000 -13.017780 14.266634 10.836956 13.116156 2.097957 4.204237 2.610408 0.424265 -7.302292 -4.933145 -0.000007 -0.000000 -0.000000 -0.000000 0.000000 -0.278677 -10.394793 3.099504 6.177629 -9.748574 -3.278855 -1.678208 -1.551373 2.856767 -7.273475 -0.000002 0.000000 -0.000000 -0.000000 -0.000000 
0.375323 200.312164 -0.307924 -3.742900 -5.229426 -3.467223 3.298289 1.502820 2.452062 1.154536 0.318192 1.550956 1.130265 0.355408 1.547358 5.619237 -0.082874 0.466838 -7.561035 1.399204 -0.083119 0.000000 -0.000000 -0.000000 0.000000 -0.000000 -0.000000 0.000000 -0.000000 -0.000000 1.040720 -17.417163 -12.331503 3.914482 -19.993931 -69.731102 -0.000000 -1.504890 -0.000006 -32.878533 -2.239228 2.107337 2.715526 7.343974 -66.574878 3.692928 5.439793 -68.321488 3.786977 5.476085 -69.310205 -0.000000 0.000000 0.000001 5.499355 0.493856 -8.469304 11.858796 25.410664 17.046692 -13.812099 3.534450 9.038031 0.000004 -0.000000 0.000000 2.745142 3.255032 -58.325601 3.688228 5.437929 -68.271887 2.829216 5.012655 -58.860719 -0.000000 0.000000 -0.000000 3.513961 7.724353 -72.122023 4.030677 5.561621 -71.843652 3.734943 5.456228 -68.764029 -0.000004 -0.000001 0.000002 4.956371 8.602409 -78.304588 3.691040 5.439050 -68.301496 3.605285 5.404306 -67.393852 0.000000 0.000000 0.000003 1.190830 15.341044 14.700136 13.119771 27.522978 58.761251 -0.000009 6.628015 -0.000017 -19.621209 0.563308 -6.062059 1.175152 -5.477414 54.245472 2.645837 -4.201313 64.388453 2.718718 -4.235383 65.379343 0.000003 -0.000001 0.000000 -1.662812 -0.170816 -4.215312 15.246796 -3.533810 -12.261675 -21.533898 21.688958 -5.725052 0.000001 0.000001 -0.000001 1.425764 -1.537983 46.028993 2.102061 -3.894929 56.697363 1.501237 -3.426538 47.308168 0.000003 -0.000003 0.000004 2.250742 -6.300619 67.439239 2.907243 -4.316570 67.907271 2.678210 -4.216603 64.829690 0.000002 -0.000000 0.000001 3.608006 -7.262121 73.588376 2.644352 -4.200602 64.368147 2.578075 -4.168225 63.460080 -0.000003 0.000000 0.000001 -12.956466 14.268139 10.783716 13.046324 2.101370 4.204415 2.625068 0.425565 -7.266643 -4.911156 -0.000001 0.000000 -0.000000 -0.000001 0.000000 -0.291888 -10.391215 3.048026 6.216235 -9.740967 -3.262670 -1.717214 -1.549798 2.863763 -7.268037 0.000006 0.000001 -0.000001 0.000001 0.000000 
0.370276 200.317627 -0.241471 -3.728193 -5.254628 -3.433707 3.312825 1.488119 2.417548 1.154536 0.318193 1.549427 1.130264 0.352787 1.547358 5.609077 -0.082873 0.469108 -7.579456 1.376777 -0.062318 -0.000000 -0.000000 -0.000000 -0.000000 -0.000000 -0.000000 -0.000000 -0.000000 -0.000000 1.032998 -17.326079 -12.363132 3.894272 -19.987509 -69.667062 0.000001 -1.606023 -0.000025 -32.774065 -2.302404 2.260930 2.713286 7.342541 -66.549108 3.690489 5.438829 -68.295758 3.784523 5.475156 -69.284483 0.000002 -0.000000 0.000002 5.499362 0.493855 -8.469334 11.860566 25.399090 17.044438 -13.814837 3.523217 9.035254 0.000005 -0.000002 -0.000002 2.744743 3.253618 -58.299988 3.685801 5.436958 -68.246205 2.826971 5.011288 -58.835010 -0.000000 -0.000000 0.000001 3.511552 7.723279 -72.096253 4.028184 5.560803 -71.817943 3.732502 5.455282 -68.738348 -0.000002 -0.000000 0.000002 4.953555 8.601973 -78.278729 3.688604 5.438083 -68.275814 3.602863 5.403301 -67.368130 0.000000 0.000001 -0.000002 1.191328 15.324803 14.714099 12.992680 27.427494 58.749134 0.000001 6.509964 0.000010 -19.472261 0.616984 -6.041012 1.174580 -5.476788 54.235281 2.645089 -4.200958 64.378262 2.717967 -4.235030 65.369166 -0.000001 0.000000 -0.000000 -1.662806 -0.170817 -4.215331 15.246804 -3.533803 -12.261687 -21.533906 21.688953 -5.725047 0.000001 0.000002 -0.000001 1.425895 -1.537410 46.018840 2.101363 -3.894478 56.687155 1.500625 -3.425983 47.297981 -0.000000 -0.000001 -0.000002 2.250018 -6.300192 67.428994 2.906480 -4.316264 67.897073 2.677453 -4.216266 64.819499 0.000004 -0.000001 0.000001 3.607104 -7.261935 73.578117 2.643601 -4.200240 64.357956 2.577335 -4.167865 63.449876 0.000000 0.000000 0.000001 -12.893353 14.269385 10.736788 12.968634 2.151964 4.205714 2.643255 0.425725 -7.277995 -4.900535 -0.000006 0.000000 -0.000000 0.000000 0.000000 -0.312686 -10.387658 3.000289 6.253462 -9.724233 -3.248632 -1.751802 -1.548553 2.868982 -7.255242 0.000015 -0.000001 -0.000001 -0.000002 0.000000 
0.361403 200.330521 -0.170440 -3.701032 -5.277174 -3.409569 3.320362 1.468865 2.381253 1.154536 0.318192 1.544792 1.130265 0.348781 1.542570 5.592304 -0.082874 0.475759 -7.618332 1.376061 -0.077158 -0.000000 -0.000000 0.000000 -0.000000 -0.000000 0.000000 -0.000000 -0.000000 0.000000 1.022696 -17.197645 -12.394246 3.855344 -20.002458 -69.590817 0.000002 -1.688668 0.000024 -32.696064 -2.384174 2.485227 2.709630 7.340205 -66.507089 3.686513 5.437252 -68.253787 3.780524 5.473650 -69.242525 -0.000000 -0.000000 0.000002 5.494038 0.486176 -8.460543 11.863479 25.380191 17.040762 -13.819242 3.504879 9.030627 -0.000004 0.000001 -0.000001 2.744088 3.251297 -58.258174 3.681823 5.435380 -68.204240 2.823311 5.009088 -58.793114 -0.000001 0.000000 0.000001 3.507607 7.721520 -72.054131 4.024116 5.559477 -71.775951 3.728517 5.453734 -68.696390 -0.000000 -0.000000 0.000001 4.948949 8.601267 -78.236484 3.684632 5.436501 -68.233843 3.598916 5.401662 -67.326186 0.000000 0.000001 -0.000002 1.187972 15.301425 14.749964 12.792582 27.283168 58.706767 -0.000003 6.282590 -0.000014 -19.280552 0.670283 -5.996299 1.173630 -5.475754 54.218441 2.643857 -4.200378 64.361405 2.716730 -4.234466 65.352322 0.000004 -0.000001 -0.000001 -1.662811 -0.170811 -4.215326 15.246792 -3.533813 -12.261668 -21.533887 21.688952 -5.725058 0.000001 0.000003 -0.000003 1.426116 -1.536438 46.002072 2.100228 -3.893732 56.670353 1.499628 -3.425051 47.281213 -0.000003 0.000001 0.000002 2.248826 -6.299468 67.412137 2.905206 -4.315749 67.880244 2.676217 -4.215694 64.802677 -0.000001 -0.000001 0.000000 3.605643 -7.261600 73.561212 2.642369 -4.199656 64.341133 2.576107 -4.167255 63.433039 -0.000003 -0.000000 0.000001 -12.837033 14.243281 10.697816 12.886568 2.214200 4.204524 2.657403 0.435612 -7.289386 -4.849585 0.000000 -0.000001 -0.000001 0.000000 0.000000 -0.288428 -10.390164 2.973339 6.189090 -9.710728 -3.231270 -1.740473 -1.540376 2.862524 -7.263884 -0.000008 -0.000001 -0.000000 0.000000 -0.000000 
